<?xml version="1.0" standalone="no"?>
<svg xmlns:xlink="http://www.w3.org/1999/xlink" xmlns="http://www.w3.org/2000/svg" class="vtree" width="960" height="800"><style>
.vtree-node text { font: 14px sans-serif; }
.vtree-link { fill: none; stroke: #888; stroke-width: 2px; }
.vtree-table { stroke-width: 2px; stroke: steelblue; }
path.vtree-table { fill: white; }
g.vtree-node rect { fill: white; stroke: black; stroke-width: 1px; }
g.vtree-node rect.number-text { fill: #d8f0ed; }
g.vtree-node rect.string-text { fill: #e7f0db; }
g.vtree-node rect.boolean-text { fill: #e1d8f0; }
g.vtree-node rect.null-text { fill: #888; }
</style><g class="vtree-root" transform="translate(347.49300427464584,16.01070456975657)scale(0.2500000000000005)"><g class="vtree-node" transform="translate(480,102)"><g class="vtree-node" transform="translate(-8,0)"><path class="vtree-link" d="M8,4C8,60.5 1549,60.5 1549,117"/><path class="vtree-link" d="M8,4C8,73 1250,73 1250,142"/><path class="vtree-link" d="M8,4C8,85.5 1060,85.5 1060,167"/><path class="vtree-link" d="M8,4C8,60.5 905,60.5 905,117"/><path class="vtree-link" d="M8,4C8,79 216,79 216,154"/><path class="vtree-link" d="M8,4C8,79 -512,79 -512,154"/><path class="vtree-link" d="M8,4C8,98 -1174,98 -1174,192"/><g class="vtree-node" transform="translate(-1233,58)"><path class="vtree-link" d="M59,134C59,244.5 577,244.5 577,355"/><path class="vtree-link" d="M59,134C59,232 480,232 480,330"/><path class="vtree-link" d="M59,134C59,244.5 377,244.5 377,355"/><path class="vtree-link" d="M59,134C59,257 263,257 263,380"/><path class="vtree-link" d="M59,134C59,250.5 121,250.5 121,367"/><path class="vtree-link" d="M59,134C59,250.5 -34,250.5 -34,367"/><path class="vtree-link" d="M59,134C59,257 -150,257 -150,380"/><path class="vtree-link" d="M59,134C59,232 -258,232 -258,330"/><path class="vtree-link" d="M59,134C59,257 -355,257 -355,380"/><path class="vtree-link" d="M59,134C59,238 -456,238 -456,342"/><g class="vtree-node" transform="translate(-510,296)"><g transform="translate(9,21)"><g transform="translate(0,0)"><rect class="string-text" x="0" y="0" width="82" height="25"/><text x="4" y="21">_timestamp</text></g><g transform="translate(82,0)"><rect class="string-text" x="0" y="0" width="8" height="25"/><text x="4" y="4"/></g><g transform="translate(0,25)"><rect class="string-text" x="0" y="0" width="82" height="25"/><text x="4" y="21">state</text></g><g transform="translate(82,25)"><rect class="string-text" x="0" y="0" width="8" height="25"/><text x="4" y="4"/></g></g><g><text x="54" y="17" text-anchor="middle">academic_state</text></g></g><g class="vtree-node" transform="translate(-393,296)"><g transform="translate(0,21)"><g transform="translate(0,0)"><rect class="string-text" x="0" y="0" width="67" height="25"/><text x="4" y="21">linkedin</text></g><g transform="translate(67,0)"><rect class="string-text" x="0" y="0" width="8" height="25"/><text x="4" y="4"/></g><g transform="translate(0,25)"><rect class="string-text" x="0" y="0" width="67" height="25"/><text x="4" y="21">facebook</text></g><g transform="translate(67,25)"><rect class="string-text" x="0" y="0" width="8" height="25"/><text x="4" y="4"/></g><g transform="translate(0,50)"><rect class="string-text" x="0" y="0" width="67" height="25"/><text x="4" y="21">twitter</text></g><g transform="translate(67,50)"><rect class="string-text" x="0" y="0" width="8" height="25"/><text x="4" y="4"/></g><g transform="translate(0,75)"><rect class="string-text" x="0" y="0" width="67" height="25"/><text x="4" y="21">github</text></g><g transform="translate(67,75)"><rect class="string-text" x="0" y="0" width="8" height="25"/><text x="4" y="4"/></g><g transform="translate(0,100)"><rect class="string-text" x="0" y="0" width="67" height="25"/><text x="4" y="21">personal</text></g><g transform="translate(67,100)"><rect class="string-text" x="0" y="0" width="8" height="25"/><text x="4" y="4"/></g></g><g><text x="38" y="17" text-anchor="middle">socials</text></g></g><g class="vtree-node" transform="translate(-258,296)"><g class="vtree-node" transform="translate(-50,0)"><g transform="translate(26,21)"><rect class="string-text" x="0" y="0" width="48" height="25"/><text x="4" y="21">00000</text></g><g><text x="50" y="17" text-anchor="middle">followed_by[0]</text></g></g></g><g class="vtree-node" transform="translate(-150,296)"><g class="vtree-node" transform="translate(-49,0)"><g transform="translate(4,21)"><g transform="translate(0,0)"><rect class="string-text" x="0" y="0" width="82" height="25"/><text x="4" y="21">_id</text></g><g transform="translate(82,0)"><rect class="string-text" x="0" y="0" width="8" height="25"/><text x="4" y="4"/></g><g transform="translate(0,25)"><rect class="string-text" x="0" y="0" width="82" height="25"/><text x="4" y="21">_timestamp</text></g><g transform="translate(82,25)"><rect class="string-text" x="0" y="0" width="8" height="25"/><text x="4" y="4"/></g><g transform="translate(0,50)"><rect class="string-text" x="0" y="0" width="82" height="25"/><text x="4" y="21">title</text></g><g transform="translate(82,50)"><rect class="string-text" x="0" y="0" width="8" height="25"/><text x="4" y="4"/></g><g transform="translate(0,75)"><rect class="string-text" x="0" y="0" width="82" height="25"/><text x="4" y="21">description</text></g><g transform="translate(82,75)"><rect class="string-text" x="0" y="0" width="8" height="25"/><text x="4" y="4"/></g><g transform="translate(0,100)"><rect class="string-text" x="0" y="0" width="82" height="25"/><text x="4" y="21">status</text></g><g transform="translate(82,100)"><rect class="string-text" x="0" y="0" width="8" height="25"/><text x="4" y="4"/></g></g><g><text x="49" y="17" text-anchor="middle">notifications[0]</text></g></g></g><g class="vtree-node" transform="translate(-34,296)"><g class="vtree-node" transform="translate(-57,0)"><g transform="translate(12,21)"><g transform="translate(0,0)"><rect class="string-text" x="0" y="0" width="82" height="25"/><text x="4" y="21">_id</text></g><g transform="translate(82,0)"><rect class="string-text" x="0" y="0" width="8" height="25"/><text x="4" y="4"/></g><g transform="translate(0,25)"><rect class="string-text" x="0" y="0" width="82" height="25"/><text x="4" y="21">_timestamp</text></g><g transform="translate(82,25)"><rect class="string-text" x="0" y="0" width="8" height="25"/><text x="4" y="4"/></g><g transform="translate(0,50)"><rect class="string-text" x="0" y="0" width="82" height="25"/><text x="4" y="21">tag_id</text></g><g transform="translate(82,50)"><rect class="string-text" x="0" y="0" width="8" height="25"/><text x="4" y="4"/></g><g transform="translate(0,75)"><rect class="string-text" x="0" y="0" width="82" height="25"/><text x="4" y="21">type</text></g><g transform="translate(82,75)"><rect class="string-text" x="0" y="0" width="8" height="25"/><text x="4" y="4"/></g></g><g><text x="57" y="17" text-anchor="middle">following_tags[0]</text></g></g></g><g class="vtree-node" transform="translate(120,296)"><g class="vtree-node" transform="translate(-87,0)"><g transform="translate(39,21)"><g transform="translate(0,0)"><rect class="string-text" x="0" y="0" width="89" height="25"/><text x="4" y="21">_id</text></g><g transform="translate(89,0)"><rect class="string-text" x="0" y="0" width="8" height="25"/><text x="4" y="4"/></g><g transform="translate(0,25)"><rect class="string-text" x="0" y="0" width="89" height="25"/><text x="4" y="21">_timestamp</text></g><g transform="translate(89,25)"><rect class="string-text" x="0" y="0" width="8" height="25"/><text x="4" y="4"/></g><g transform="translate(0,50)"><rect class="string-text" x="0" y="0" width="89" height="25"/><text x="4" y="21">content_type</text></g><g transform="translate(89,50)"><rect class="string-text" x="0" y="0" width="8" height="25"/><text x="4" y="4"/></g><g transform="translate(0,75)"><rect class="string-text" x="0" y="0" width="89" height="25"/><text x="4" y="21">content_id</text></g><g transform="translate(89,75)"><rect class="string-text" x="0" y="0" width="8" height="25"/><text x="4" y="4"/></g></g><g><text x="87" y="17" text-anchor="middle">subscribed_notifications[0]</text></g></g></g><g class="vtree-node" transform="translate(263,296)"><g class="vtree-node" transform="translate(-46,0)"><g transform="translate(0,21)"><g transform="translate(0,0)"><rect class="string-text" x="0" y="0" width="84" height="25"/><text x="4" y="21">_id</text></g><g transform="translate(84,0)"><rect class="string-text" x="0" y="0" width="8" height="25"/><text x="4" y="4"/></g><g transform="translate(0,25)"><rect class="string-text" x="0" y="0" width="84" height="25"/><text x="4" y="21">_timestamp</text></g><g transform="translate(84,25)"><rect class="string-text" x="0" y="0" width="8" height="25"/><text x="4" y="4"/></g><g transform="translate(0,50)"><rect class="string-text" x="0" y="0" width="84" height="25"/><text x="4" y="21">reported_by</text></g><g transform="translate(84,50)"><rect class="string-text" x="0" y="0" width="8" height="25"/><text x="4" y="4"/></g><g transform="translate(0,75)"><rect class="string-text" x="0" y="0" width="84" height="25"/><text x="4" y="21">title</text></g><g transform="translate(84,75)"><rect class="string-text" x="0" y="0" width="8" height="25"/><text x="4" y="4"/></g><g transform="translate(0,100)"><rect class="string-text" x="0" y="0" width="84" height="25"/><text x="4" y="21">message</text></g><g transform="translate(84,100)"><rect class="string-text" x="0" y="0" width="8" height="25"/><text x="4" y="4"/></g></g><g><text x="46" y="17" text-anchor="middle">reports[0]</text></g></g></g><g class="vtree-node" transform="translate(377,296)"><g class="vtree-node" transform="translate(-58,0)"><g transform="translate(13,21)"><g transform="translate(0,0)"><rect class="string-text" x="0" y="0" width="82" height="25"/><text x="4" y="21">_id</text></g><g transform="translate(82,0)"><rect class="string-text" x="0" y="0" width="8" height="25"/><text x="4" y="4"/></g><g transform="translate(0,25)"><rect class="string-text" x="0" y="0" width="82" height="25"/><text x="4" y="21">_timestamp</text></g><g transform="translate(82,25)"><rect class="string-text" x="0" y="0" width="8" height="25"/><text x="4" y="4"/></g><g transform="translate(0,50)"><rect class="string-text" x="0" y="0" width="82" height="25"/><text x="4" y="21">query</text></g><g transform="translate(82,50)"><rect class="string-text" x="0" y="0" width="8" height="25"/><text x="4" y="4"/></g></g><g><text x="58" y="17" text-anchor="middle">search_history[0]</text></g></g></g><g class="vtree-node" transform="translate(480,296)"><g class="vtree-node" transform="translate(-36,0)"><g transform="translate(0,21)"><rect class="string-text" x="0" y="0" width="71" height="25"/><text x="4" y="21">00000001</text></g><g><text x="36" y="17" text-anchor="middle">posts[0]</text></g></g></g><g class="vtree-node" transform="translate(577,296)"><g class="vtree-node" transform="translate(-45,0)"><path class="vtree-link" d="M45,59C45,132 45,132 45,205"/><g class="vtree-node" transform="translate(45,146)"><g class="vtree-node" transform="translate(-52,0)"><g transform="translate(7,21)"><g transform="translate(0,0)"><rect class="string-text" x="0" y="0" width="82" height="25"/><text x="4" y="21">_id</text></g><g transform="translate(82,0)"><rect class="string-text" x="0" y="0" width="8" height="25"/><text x="4" y="4"/></g><g transform="translate(0,25)"><rect class="string-text" x="0" y="0" width="82" height="25"/><text x="4" y="21">_timestamp</text></g><g transform="translate(82,25)"><rect class="string-text" x="0" y="0" width="8" height="25"/><text x="4" y="4"/></g><g transform="translate(0,50)"><rect class="string-text" x="0" y="0" width="82" height="25"/><text x="4" y="21">post_id</text></g><g transform="translate(82,50)"><rect class="string-text" x="0" y="0" width="8" height="25"/><text x="4" y="4"/></g></g><g><text x="52" y="17" text-anchor="middle">saved_posts[0]</text></g></g></g><g transform="translate(0,21)"><g transform="translate(0,0)"><rect class="string-text" x="0" y="0" width="82" height="25"/><text x="4" y="21">_id</text></g><g transform="translate(82,0)"><rect class="string-text" x="0" y="0" width="8" height="25"/><text x="4" y="4"/></g><g transform="translate(0,25)"><rect class="string-text" x="0" y="0" width="82" height="25"/><text x="4" y="21">_timestamp</text></g><g transform="translate(82,25)"><rect class="string-text" x="0" y="0" width="8" height="25"/><text x="4" y="4"/></g><g transform="translate(0,50)"><rect class="string-text" x="0" y="0" width="82" height="25"/><text x="4" y="21">name</text></g><g transform="translate(82,50)"><rect class="string-text" x="0" y="0" width="8" height="25"/><text x="4" y="4"/></g></g><g><text x="45" y="17" text-anchor="middle">collections[0]</text></g></g></g><g transform="translate(0,21)"><g transform="translate(0,0)"><rect class="string-text" x="0" y="0" width="110" height="25"/><text x="4" y="21">_id</text></g><g transform="translate(110,0)"><rect class="string-text" x="0" y="0" width="8" height="25"/><text x="4" y="4"/></g><g transform="translate(0,25)"><rect class="string-text" x="0" y="0" width="110" height="25"/><text x="4" y="21">_timestamp</text></g><g transform="translate(110,25)"><rect class="string-text" x="0" y="0" width="8" height="25"/><text x="4" y="4"/></g><g transform="translate(0,50)"><rect class="string-text" x="0" y="0" width="110" height="25"/><text x="4" y="21">name</text></g><g transform="translate(110,50)"><rect class="string-text" x="0" y="0" width="8" height="25"/><text x="4" y="4"/></g><g transform="translate(0,75)"><rect class="string-text" x="0" y="0" width="110" height="25"/><text x="4" y="21">personal_email</text></g><g transform="translate(110,75)"><rect class="string-text" x="0" y="0" width="8" height="25"/><text x="4" y="4"/></g><g transform="translate(0,100)"><rect class="string-text" x="0" y="0" width="110" height="25"/><text x="4" y="21">academic_email</text></g><g transform="translate(110,100)"><rect class="string-text" x="0" y="0" width="8" height="25"/><text x="4" y="4"/></g><g transform="translate(0,125)"><rect class="string-text" x="0" y="0" width="110" height="25"/><text x="4" y="21">bio</text></g><g transform="translate(110,125)"><rect class="string-text" x="0" y="0" width="8" height="25"/><text x="4" y="4"/></g><g transform="translate(0,150)"><rect class="string-text" x="0" y="0" width="110" height="25"/><text x="4" y="21">role</text></g><g transform="translate(110,150)"><rect class="string-text" x="0" y="0" width="8" height="25"/><text x="4" y="4"/></g><g transform="translate(0,175)"><rect class="string-text" x="0" y="0" width="110" height="25"/><text x="4" y="21">gender</text></g><g transform="translate(110,175)"><rect class="string-text" x="0" y="0" width="8" height="25"/><text x="4" y="4"/></g><g transform="translate(0,200)"><rect class="string-text" x="0" y="0" width="110" height="25"/><text x="4" y="21">birthday</text></g><g transform="translate(110,200)"><rect class="string-text" x="0" y="0" width="8" height="25"/><text x="4" y="4"/></g></g><g><text x="59" y="17" text-anchor="middle">user</text></g></g><g class="vtree-node" transform="translate(-561,58)"><path class="vtree-link" d="M49,96C49,175.5 49,175.5 49,255"/><g class="vtree-node" transform="translate(-2,221)"><path class="vtree-link" d="M51,34C51,100.5 103,100.5 103,167"/><path class="vtree-link" d="M51,34C51,82 15,82 15,130"/><g class="vtree-node" transform="translate(15,96)"><g class="vtree-node" transform="translate(-47,0)"><g transform="translate(3,21)"><rect class="string-text" x="0" y="0" width="87" height="25"/><text x="4" y="21">0000000000</text></g><g><text x="47" y="17" text-anchor="middle">phone_nos[0]</text></g></g></g><g class="vtree-node" transform="translate(71,96)"><g transform="translate(0,21)"><g transform="translate(0,0)"><rect class="string-text" x="0" y="0" width="55" height="25"/><text x="4" y="21">line_1</text></g><g transform="translate(55,0)"><rect class="string-text" x="0" y="0" width="8" height="25"/><text x="4" y="4"/></g><g transform="translate(0,25)"><rect class="string-text" x="0" y="0" width="55" height="25"/><text x="4" y="21">line_2</text></g><g transform="translate(55,25)"><rect class="string-text" x="0" y="0" width="8" height="25"/><text x="4" y="4"/></g><g transform="translate(0,50)"><rect class="string-text" x="0" y="0" width="55" height="25"/><text x="4" y="21">city</text></g><g transform="translate(55,50)"><rect class="string-text" x="0" y="0" width="8" height="25"/><text x="4" y="4"/></g><g transform="translate(0,75)"><rect class="string-text" x="0" y="0" width="55" height="25"/><text x="4" y="21">country</text></g><g transform="translate(55,75)"><rect class="string-text" x="0" y="0" width="8" height="25"/><text x="4" y="4"/></g></g><g><text x="32" y="17" text-anchor="middle">address</text></g></g><g transform="translate(26,21)"><g transform="translate(0,0)"><rect class="string-text" x="0" y="0" width="42" height="25"/><text x="4" y="21">email</text></g><g transform="translate(42,0)"><rect class="string-text" x="0" y="0" width="8" height="25"/><text x="4" y="4"/></g></g><g><text x="51" y="17" text-anchor="middle">contact_details</text></g></g><g transform="translate(0,21)"><g transform="translate(0,0)"><rect class="string-text" x="0" y="0" width="89" height="25"/><text x="4" y="21">_id</text></g><g transform="translate(89,0)"><rect class="string-text" x="0" y="0" width="8" height="25"/><text x="4" y="4"/></g><g transform="translate(0,25)"><rect class="string-text" x="0" y="0" width="89" height="25"/><text x="4" y="21">_timestamp</text></g><g transform="translate(89,25)"><rect class="string-text" x="0" y="0" width="8" height="25"/><text x="4" y="4"/></g><g transform="translate(0,50)"><rect class="string-text" x="0" y="0" width="89" height="25"/><text x="4" y="21">name</text></g><g transform="translate(89,50)"><rect class="string-text" x="0" y="0" width="8" height="25"/><text x="4" y="4"/></g><g transform="translate(0,75)"><rect class="string-text" x="0" y="0" width="89" height="25"/><text x="4" y="21">domain</text></g><g transform="translate(89,75)"><rect class="string-text" x="0" y="0" width="8" height="25"/><text x="4" y="4"/></g><g transform="translate(0,100)"><rect class="string-text" x="0" y="0" width="89" height="25"/><text x="4" y="21">description</text></g><g transform="translate(89,100)"><rect class="string-text" x="0" y="0" width="8" height="25"/><text x="4" y="4"/></g><g transform="translate(0,125)"><rect class="string-text" x="0" y="0" width="89" height="25"/><text x="4" y="21">cover_image</text></g><g transform="translate(89,125)"><rect class="string-text" x="0" y="0" width="8" height="25"/><text x="4" y="4"/></g></g><g><text x="49" y="17" text-anchor="middle">institute</text></g></g><g class="vtree-node" transform="translate(171,58)"><path class="vtree-link" d="M45,96C45,175.5 594,175.5 594,255"/><path class="vtree-link" d="M45,96C45,194 454,194 454,292"/><path class="vtree-link" d="M45,96C45,175.5 366,175.5 366,255"/><path class="vtree-link" d="M45,96C45,188 267,188 267,280"/><path class="vtree-link" d="M45,96C45,188 158,188 158,280"/><path class="vtree-link" d="M45,96C45,194 -136,194 -136,292"/><path class="vtree-link" d="M45,96C45,181.5 -434,181.5 -434,267"/><path class="vtree-link" d="M45,96C45,219 -541,219 -541,342"/><g class="vtree-node" transform="translate(-541,221)"><g class="vtree-node" transform="translate(-49,0)"><path class="vtree-link" d="M49,121C49,213 49,213 49,305"/><g class="vtree-node" transform="translate(49,271)"><g class="vtree-node" transform="translate(-32,0)"><g transform="translate(0,21)"><rect class="string-text" x="0" y="0" width="63" height="25"/><text x="4" y="21">0000000</text></g><g><text x="32" y="17" text-anchor="middle">tags[0]</text></g></g></g><g transform="translate(0,21)"><g transform="translate(0,0)"><rect class="string-text" x="0" y="0" width="89" height="25"/><text x="4" y="21">_id</text></g><g transform="translate(89,0)"><rect class="string-text" x="0" y="0" width="8" height="25"/><text x="4" y="4"/></g><g transform="translate(0,25)"><rect class="string-text" x="0" y="0" width="89" height="25"/><text x="4" y="21">_timestamp</text></g><g transform="translate(89,25)"><rect class="string-text" x="0" y="0" width="8" height="25"/><text x="4" y="4"/></g><g transform="translate(0,50)"><rect class="string-text" x="0" y="0" width="89" height="25"/><text x="4" y="21">version</text></g><g transform="translate(89,50)"><rect class="string-text" x="0" y="0" width="8" height="25"/><text x="4" y="4"/></g><g transform="translate(0,75)"><rect class="string-text" x="0" y="0" width="89" height="25"/><text x="4" y="21">title</text></g><g transform="translate(89,75)"><rect class="string-text" x="0" y="0" width="8" height="25"/><text x="4" y="4"/></g><g transform="translate(0,100)"><rect class="string-text" x="0" y="0" width="89" height="25"/><text x="4" y="21">cover_image</text></g><g transform="translate(89,100)"><rect class="string-text" x="0" y="0" width="8" height="25"/><text x="4" y="4"/></g><g transform="translate(0,125)"><rect class="string-text" x="0" y="0" width="89" height="25"/><text x="4" y="21">content</text></g><g transform="translate(89,125)"><rect class="string-text" x="0" y="0" width="8" height="25"/><text x="4" y="4"/></g><g transform="translate(0,150)"><rect class="string-text" x="0" y="0" width="89" height="25"/><text x="4" y="21">read_time</text></g><g transform="translate(89,150)"><rect class="string-text" x="0" y="0" width="8" height="25"/><text x="4" y="4"/></g><g transform="translate(0,175)"><rect class="string-text" x="0" y="0" width="89" height="25"/><text x="4" y="21">contributer</text></g><g transform="translate(89,175)"><rect class="string-text" x="0" y="0" width="8" height="25"/><text x="4" y="4"/></g></g><g><text x="49" y="17" text-anchor="middle">versions[0]</text></g></g></g><g class="vtree-node" transform="translate(-483,221)"><g transform="translate(0,21)"><g transform="translate(0,0)"><rect class="string-text" x="0" y="0" width="89" height="25"/><text x="4" y="21">original_post</text></g><g transform="translate(89,0)"><rect class="string-text" x="0" y="0" width="8" height="25"/><text x="4" y="4"/></g><g transform="translate(0,25)"><rect class="string-text" x="0" y="0" width="89" height="25"/><text x="4" y="21">comment</text></g><g transform="translate(89,25)"><rect class="string-text" x="0" y="0" width="8" height="25"/><text x="4" y="4"/></g></g><g><text x="49" y="17" text-anchor="middle">pin</text></g></g><g class="vtree-node" transform="translate(-136,221)"><g class="vtree-node" transform="translate(-45,0)"><path class="vtree-link" d="M45,71C45,133.5 244,133.5 244,196"/><path class="vtree-link" d="M45,71C45,138 108,138 108,205"/><path class="vtree-link" d="M45,71C45,150.5 -41,150.5 -41,230"/><path class="vtree-link" d="M45,71C45,150.5 -150,150.5 -150,230"/><g class="vtree-node" transform="translate(-150,171)"><g class="vtree-node" transform="translate(-45,0)"><g transform="translate(0,21)"><g transform="translate(0,0)"><rect class="string-text" x="0" y="0" width="82" height="25"/><text x="4" y="21">_id</text></g><g transform="translate(82,0)"><rect class="string-text" x="0" y="0" width="8" height="25"/><text x="4" y="4"/></g><g transform="translate(0,25)"><rect class="string-text" x="0" y="0" width="82" height="25"/><text x="4" y="21">_timestamp</text></g><g transform="translate(82,25)"><rect class="string-text" x="0" y="0" width="8" height="25"/><text x="4" y="4"/></g><g transform="translate(0,50)"><rect class="string-text" x="0" y="0" width="82" height="25"/><text x="4" y="21">upvoted_by</text></g><g transform="translate(82,50)"><rect class="string-text" x="0" y="0" width="8" height="25"/><text x="4" y="4"/></g></g><g><text x="45" y="17" text-anchor="middle">upvotes[0]</text></g></g></g><g class="vtree-node" transform="translate(-41,171)"><g class="vtree-node" transform="translate(-54,0)"><g transform="translate(0,21)"><g transform="translate(0,0)"><rect class="string-text" x="0" y="0" width="100" height="25"/><text x="4" y="21">_id</text></g><g transform="translate(100,0)"><rect class="string-text" x="0" y="0" width="8" height="25"/><text x="4" y="4"/></g><g transform="translate(0,25)"><rect class="string-text" x="0" y="0" width="100" height="25"/><text x="4" y="21">_timestamp</text></g><g transform="translate(100,25)"><rect class="string-text" x="0" y="0" width="8" height="25"/><text x="4" y="4"/></g><g transform="translate(0,50)"><rect class="string-text" x="0" y="0" width="100" height="25"/><text x="4" y="21">downvoted_by</text></g><g transform="translate(100,50)"><rect class="string-text" x="0" y="0" width="8" height="25"/><text x="4" y="4"/></g></g><g><text x="54" y="17" text-anchor="middle">downvotes[0]</text></g></g></g><g class="vtree-node" transform="translate(108,171)"><g class="vtree-node" transform="translate(-85,0)"><g transform="translate(65,21)"><rect class="string-text" x="0" y="0" width="40" height="25"/><text x="4" y="21">0001</text></g><g><text x="85" y="17" text-anchor="middle">notification_subscribers[0]</text></g></g></g><g class="vtree-node" transform="translate(244,171)"><g class="vtree-node" transform="translate(-41,0)"><g transform="translate(37,21)"><rect class="null-text" x="0" y="0" width="8" height="8"/><text x="4" y="4"/></g><g><text x="41" y="17" text-anchor="middle">comments[]</text></g></g></g><g transform="translate(0,21)"><g transform="translate(0,0)"><rect class="string-text" x="0" y="0" width="82" height="25"/><text x="4" y="21">_id</text></g><g transform="translate(82,0)"><rect class="string-text" x="0" y="0" width="8" height="25"/><text x="4" y="4"/></g><g transform="translate(0,25)"><rect class="string-text" x="0" y="0" width="82" height="25"/><text x="4" y="21">_timestamp</text></g><g transform="translate(82,25)"><rect class="string-text" x="0" y="0" width="8" height="25"/><text x="4" y="4"/></g><g transform="translate(0,50)"><rect class="string-text" x="0" y="0" width="82" height="25"/><text x="4" y="21">commenter</text></g><g transform="translate(82,50)"><rect class="string-text" x="0" y="0" width="8" height="25"/><text x="4" y="4"/></g><g transform="translate(0,75)"><rect class="string-text" x="0" y="0" width="82" height="25"/><text x="4" y="21">content</text></g><g transform="translate(82,75)"><rect class="string-text" x="0" y="0" width="8" height="25"/><text x="4" y="4"/></g></g><g><text x="45" y="17" text-anchor="middle">comments[0]</text></g></g></g><g class="vtree-node" transform="translate(158,221)"><g class="vtree-node" transform="translate(-45,0)"><g transform="translate(0,21)"><g transform="translate(0,0)"><rect class="string-text" x="0" y="0" width="82" height="25"/><text x="4" y="21">_id</text></g><g transform="translate(82,0)"><rect class="string-text" x="0" y="0" width="8" height="25"/><text x="4" y="4"/></g><g transform="translate(0,25)"><rect class="string-text" x="0" y="0" width="82" height="25"/><text x="4" y="21">_timestamp</text></g><g transform="translate(82,25)"><rect class="string-text" x="0" y="0" width="8" height="25"/><text x="4" y="4"/></g><g transform="translate(0,50)"><rect class="string-text" x="0" y="0" width="82" height="25"/><text x="4" y="21">upvoted_by</text></g><g transform="translate(82,50)"><rect class="string-text" x="0" y="0" width="8" height="25"/><text x="4" y="4"/></g></g><g><text x="45" y="17" text-anchor="middle">upvotes[0]</text></g></g></g><g class="vtree-node" transform="translate(267,221)"><g class="vtree-node" transform="translate(-54,0)"><g transform="translate(0,21)"><g transform="translate(0,0)"><rect class="string-text" x="0" y="0" width="100" height="25"/><text x="4" y="21">_id</text></g><g transform="translate(100,0)"><rect class="string-text" x="0" y="0" width="8" height="25"/><text x="4" y="4"/></g><g transform="translate(0,25)"><rect class="string-text" x="0" y="0" width="100" height="25"/><text x="4" y="21">_timestamp</text></g><g transform="translate(100,25)"><rect class="string-text" x="0" y="0" width="8" height="25"/><text x="4" y="4"/></g><g transform="translate(0,50)"><rect class="string-text" x="0" y="0" width="100" height="25"/><text x="4" y="21">downvoted_by</text></g><g transform="translate(100,50)"><rect class="string-text" x="0" y="0" width="8" height="25"/><text x="4" y="4"/></g></g><g><text x="54" y="17" text-anchor="middle">downvotes[0]</text></g></g></g><g class="vtree-node" transform="translate(365,221)"><g class="vtree-node" transform="translate(-34,0)"><g transform="translate(7,21)"><rect class="string-text" x="0" y="0" width="55" height="25"/><text x="4" y="21">000000</text></g><g><text x="34" y="17" text-anchor="middle">reports[0]</text></g></g></g><g class="vtree-node" transform="translate(454,221)"><g class="vtree-node" transform="translate(-45,0)"><g transform="translate(0,21)"><g transform="translate(0,0)"><rect class="string-text" x="0" y="0" width="82" height="25"/><text x="4" y="21">_id</text></g><g transform="translate(82,0)"><rect class="string-text" x="0" y="0" width="8" height="25"/><text x="4" y="4"/></g><g transform="translate(0,25)"><rect class="string-text" x="0" y="0" width="82" height="25"/><text x="4" y="21">_timestamp</text></g><g transform="translate(82,25)"><rect class="string-text" x="0" y="0" width="8" height="25"/><text x="4" y="4"/></g><g transform="translate(0,50)"><rect class="string-text" x="0" y="0" width="82" height="25"/><text x="4" y="21">user_id</text></g><g transform="translate(82,50)"><rect class="string-text" x="0" y="0" width="8" height="25"/><text x="4" y="4"/></g><g transform="translate(0,75)"><rect class="string-text" x="0" y="0" width="82" height="25"/><text x="4" y="21">post_id</text></g><g transform="translate(82,75)"><rect class="string-text" x="0" y="0" width="8" height="25"/><text x="4" y="4"/></g></g><g><text x="45" y="17" text-anchor="middle">pinned_by[0]</text></g></g></g><g class="vtree-node" transform="translate(594,221)"><g class="vtree-node" transform="translate(-85,0)"><g transform="translate(65,21)"><rect class="string-text" x="0" y="0" width="40" height="25"/><text x="4" y="21">0001</text></g><g><text x="85" y="17" text-anchor="middle">notification_subscribers[0]</text></g></g></g><g transform="translate(0,21)"><g transform="translate(0,0)"><rect class="string-text" x="0" y="0" width="82" height="25"/><text x="4" y="21">_id</text></g><g transform="translate(82,0)"><rect class="string-text" x="0" y="0" width="8" height="25"/><text x="4" y="4"/></g><g transform="translate(0,25)"><rect class="string-text" x="0" y="0" width="82" height="25"/><text x="4" y="21">_timestamp</text></g><g transform="translate(82,25)"><rect class="string-text" x="0" y="0" width="8" height="25"/><text x="4" y="4"/></g><g transform="translate(0,50)"><rect class="string-text" x="0" y="0" width="82" height="25"/><text x="4" y="21">status</text></g><g transform="translate(82,50)"><rect class="string-text" x="0" y="0" width="8" height="25"/><text x="4" y="4"/></g><g transform="translate(0,75)"><rect class="string-text" x="0" y="0" width="82" height="25"/><text x="4" y="21">type</text></g><g transform="translate(82,75)"><rect class="string-text" x="0" y="0" width="8" height="25"/><text x="4" y="4"/></g><g transform="translate(0,100)"><rect class="string-text" x="0" y="0" width="82" height="25"/><text x="4" y="21">licence</text></g><g transform="translate(82,100)"><rect class="string-text" x="0" y="0" width="8" height="25"/><text x="4" y="4"/></g><g transform="translate(0,125)"><rect class="string-text" x="0" y="0" width="82" height="25"/><text x="4" y="21">visibility</text></g><g transform="translate(82,125)"><rect class="string-text" x="0" y="0" width="8" height="25"/><text x="4" y="4"/></g></g><g><text x="45" y="17" text-anchor="middle">post</text></g></g><g class="vtree-node" transform="translate(860,58)"><g transform="translate(0,21)"><g transform="translate(0,0)"><rect class="string-text" x="0" y="0" width="82" height="25"/><text x="4" y="21">_id</text></g><g transform="translate(82,0)"><rect class="string-text" x="0" y="0" width="8" height="25"/><text x="4" y="4"/></g><g transform="translate(0,25)"><rect class="string-text" x="0" y="0" width="82" height="25"/><text x="4" y="21">_timestamp</text></g><g transform="translate(82,25)"><rect class="string-text" x="0" y="0" width="8" height="25"/><text x="4" y="4"/></g><g transform="translate(0,50)"><rect class="string-text" x="0" y="0" width="82" height="25"/><text x="4" y="21">verbose</text></g><g transform="translate(82,50)"><rect class="string-text" x="0" y="0" width="8" height="25"/><text x="4" y="4"/></g></g><g><text x="45" y="17" text-anchor="middle">tag</text></g></g><g class="vtree-node" transform="translate(1014,58)"><path class="vtree-link" d="M46,109C46,207 101,207 101,305"/><path class="vtree-link" d="M46,109C46,213 -4,213 -4,317"/><g class="vtree-node" transform="translate(-54,246)"><g transform="translate(0,21)"><g transform="translate(0,0)"><rect class="string-text" x="0" y="0" width="92" height="25"/><text x="4" y="21">user_id</text></g><g transform="translate(92,0)"><rect class="string-text" x="0" y="0" width="8" height="25"/><text x="4" y="4"/></g><g transform="translate(0,25)"><rect class="string-text" x="0" y="0" width="92" height="25"/><text x="4" y="21">user_institute</text></g><g transform="translate(92,25)"><rect class="string-text" x="0" y="0" width="8" height="25"/><text x="4" y="4"/></g><g transform="translate(0,50)"><rect class="string-text" x="0" y="0" width="92" height="25"/><text x="4" y="21">post_id</text></g><g transform="translate(92,50)"><rect class="string-text" x="0" y="0" width="8" height="25"/><text x="4" y="4"/></g><g transform="translate(0,75)"><rect class="string-text" x="0" y="0" width="92" height="25"/><text x="4" y="21">comment_id</text></g><g transform="translate(92,75)"><rect class="string-text" x="0" y="0" width="8" height="25"/><text x="4" y="4"/></g></g><g><text x="50" y="17" text-anchor="middle">against</text></g></g><g class="vtree-node" transform="translate(56,246)"><g transform="translate(0,21)"><g transform="translate(0,0)"><rect class="string-text" x="0" y="0" width="82" height="25"/><text x="4" y="21">_timestamp</text></g><g transform="translate(82,0)"><rect class="string-text" x="0" y="0" width="8" height="25"/><text x="4" y="4"/></g><g transform="translate(0,25)"><rect class="string-text" x="0" y="0" width="82" height="25"/><text x="4" y="21">user_id</text></g><g transform="translate(82,25)"><rect class="string-text" x="0" y="0" width="8" height="25"/><text x="4" y="4"/></g><g transform="translate(0,50)"><rect class="string-text" x="0" y="0" width="82" height="25"/><text x="4" y="21">action</text></g><g transform="translate(82,50)"><rect class="string-text" x="0" y="0" width="8" height="25"/><text x="4" y="4"/></g></g><g><text x="45" y="17" text-anchor="middle">closed_info</text></g></g><g transform="translate(0,21)"><g transform="translate(0,0)"><rect class="string-text" x="0" y="0" width="84" height="25"/><text x="4" y="21">_id</text></g><g transform="translate(84,0)"><rect class="string-text" x="0" y="0" width="8" height="25"/><text x="4" y="4"/></g><g transform="translate(0,25)"><rect class="string-text" x="0" y="0" width="84" height="25"/><text x="4" y="21">_timestamp</text></g><g transform="translate(84,25)"><rect class="string-text" x="0" y="0" width="8" height="25"/><text x="4" y="4"/></g><g transform="translate(0,50)"><rect class="string-text" x="0" y="0" width="84" height="25"/><text x="4" y="21">reported_by</text></g><g transform="translate(84,50)"><rect class="string-text" x="0" y="0" width="8" height="25"/><text x="4" y="4"/></g><g transform="translate(0,75)"><rect class="string-text" x="0" y="0" width="84" height="25"/><text x="4" y="21">type</text></g><g transform="translate(84,75)"><rect class="string-text" x="0" y="0" width="8" height="25"/><text x="4" y="4"/></g><g transform="translate(0,100)"><rect class="string-text" x="0" y="0" width="84" height="25"/><text x="4" y="21">title</text></g><g transform="translate(84,100)"><rect class="string-text" x="0" y="0" width="8" height="25"/><text x="4" y="4"/></g><g transform="translate(0,125)"><rect class="string-text" x="0" y="0" width="84" height="25"/><text x="4" y="21">message</text></g><g transform="translate(84,125)"><rect class="string-text" x="0" y="0" width="8" height="25"/><text x="4" y="4"/></g><g transform="translate(0,150)"><rect class="string-text" x="0" y="0" width="84" height="25"/><text x="4" y="21">closed</text></g><g transform="translate(84,150)"><rect class="string-text" x="0" y="0" width="8" height="25"/><text x="4" y="4"/></g></g><g><text x="46" y="17" text-anchor="middle">report</text></g></g><g class="vtree-node" transform="translate(1170,58)"><g transform="translate(35,21)"><g transform="translate(0,0)"><rect class="string-text" x="0" y="0" width="82" height="25"/><text x="4" y="21">_id</text></g><g transform="translate(82,0)"><rect class="string-text" x="0" y="0" width="8" height="25"/><text x="4" y="4"/></g><g transform="translate(0,25)"><rect class="string-text" x="0" y="0" width="82" height="25"/><text x="4" y="21">_timestamp</text></g><g transform="translate(82,25)"><rect class="string-text" x="0" y="0" width="8" height="25"/><text x="4" y="4"/></g><g transform="translate(0,50)"><rect class="string-text" x="0" y="0" width="82" height="25"/><text x="4" y="21">user_id</text></g><g transform="translate(82,50)"><rect class="string-text" x="0" y="0" width="8" height="25"/><text x="4" y="4"/></g><g transform="translate(0,75)"><rect class="string-text" x="0" y="0" width="82" height="25"/><text x="4" y="21">institute_id</text></g><g transform="translate(82,75)"><rect class="string-text" x="0" y="0" width="8" height="25"/><text x="4" y="4"/></g><g transform="translate(0,100)"><rect class="string-text" x="0" y="0" width="82" height="25"/><text x="4" y="21">status</text></g><g transform="translate(82,100)"><rect class="string-text" x="0" y="0" width="8" height="25"/><text x="4" y="4"/></g></g><g><text x="80" y="17" text-anchor="middle">academic_user_request</text></g></g><g class="vtree-node" transform="translate(1501,58)"><path class="vtree-link" d="M48,59C48,157 104,157 104,255"/><path class="vtree-link" d="M48,59C48,125.5 -110,125.5 -110,192"/><g class="vtree-node" transform="translate(-162,146)"><g transform="translate(12,21)"><g transform="translate(0,0)"><rect class="string-text" x="0" y="0" width="71" height="25"/><text x="4" y="21">email</text></g><g transform="translate(71,0)"><rect class="string-text" x="0" y="0" width="8" height="25"/><text x="4" y="4"/></g><g transform="translate(0,25)"><rect class="string-text" x="0" y="0" width="71" height="25"/><text x="4" y="21">phone_no</text></g><g transform="translate(71,25)"><rect class="string-text" x="0" y="0" width="8" height="25"/><text x="4" y="4"/></g></g><g><text x="51" y="17" text-anchor="middle">contact_details</text></g></g><g class="vtree-node" transform="translate(104,146)"><g class="vtree-node" transform="translate(-60,0)"><path class="vtree-link" d="M60,109C60,213 152,213 152,317"/><path class="vtree-link" d="M60,109C60,194.5 29,194.5 29,280"/><path class="vtree-link" d="M60,109C60,190 -63,190 -63,271"/><g class="vtree-node" transform="translate(-63,246)"><g class="vtree-node" transform="translate(-31,0)"><g transform="translate(27,21)"><rect class="null-text" x="0" y="0" width="8" height="8"/><text x="4" y="4"/></g><g><text x="31" y="17" text-anchor="middle">images[]</text></g></g></g><g class="vtree-node" transform="translate(29,246)"><g class="vtree-node" transform="translate(-51,0)"><g transform="translate(39,21)"><rect class="string-text" x="0" y="0" width="24" height="25"/><text x="4" y="21">....</text></g><g><text x="51" y="17" text-anchor="middle">related_tags[0]</text></g></g></g><g class="vtree-node" transform="translate(89,246)"><g transform="translate(0,21)"><g transform="translate(0,0)"><rect class="string-text" x="0" y="0" width="117" height="25"/><text x="4" y="21">_timestamp</text></g><g transform="translate(117,0)"><rect class="string-text" x="0" y="0" width="8" height="25"/><text x="4" y="4"/></g><g transform="translate(0,25)"><rect class="string-text" x="0" y="0" width="117" height="25"/><text x="4" y="21">payment_method</text></g><g transform="translate(117,25)"><rect class="string-text" x="0" y="0" width="8" height="25"/><text x="4" y="4"/></g><g transform="translate(0,50)"><rect class="string-text" x="0" y="0" width="117" height="25"/><text x="4" y="21">amount</text></g><g transform="translate(117,50)"><rect class="string-text" x="0" y="0" width="8" height="25"/><text x="4" y="4"/></g><g transform="translate(0,75)"><rect class="string-text" x="0" y="0" width="117" height="25"/><text x="4" y="21">description</text></g><g transform="translate(117,75)"><rect class="string-text" x="0" y="0" width="8" height="25"/><text x="4" y="4"/></g></g><g><text x="63" y="17" text-anchor="middle">payment_details</text></g></g><g transform="translate(13,21)"><g transform="translate(0,0)"><rect class="string-text" x="0" y="0" width="85" height="25"/><text x="4" y="21">_id</text></g><g transform="translate(85,0)"><rect class="string-text" x="0" y="0" width="8" height="25"/><text x="4" y="4"/></g><g transform="translate(0,25)"><rect class="string-text" x="0" y="0" width="85" height="25"/><text x="4" y="21">_timestamp</text></g><g transform="translate(85,25)"><rect class="string-text" x="0" y="0" width="8" height="25"/><text x="4" y="4"/></g><g transform="translate(0,50)"><rect class="string-text" x="0" y="0" width="85" height="25"/><text x="4" y="21">valid_till</text></g><g transform="translate(85,50)"><rect class="string-text" x="0" y="0" width="8" height="25"/><text x="4" y="4"/></g><g transform="translate(0,75)"><rect class="string-text" x="0" y="0" width="85" height="25"/><text x="4" y="21">type</text></g><g transform="translate(85,75)"><rect class="string-text" x="0" y="0" width="8" height="25"/><text x="4" y="4"/></g><g transform="translate(0,100)"><rect class="string-text" x="0" y="0" width="85" height="25"/><text x="4" y="21">video</text></g><g transform="translate(85,100)"><rect class="string-text" x="0" y="0" width="8" height="25"/><text x="4" y="4"/></g><g transform="translate(0,125)"><rect class="string-text" x="0" y="0" width="85" height="25"/><text x="4" y="21">caption</text></g><g transform="translate(85,125)"><rect class="string-text" x="0" y="0" width="8" height="25"/><text x="4" y="4"/></g><g transform="translate(0,150)"><rect class="string-text" x="0" y="0" width="85" height="25"/><text x="4" y="21">redirect_link</text></g><g transform="translate(85,150)"><rect class="string-text" x="0" y="0" width="8" height="25"/><text x="4" y="4"/></g></g><g><text x="60" y="17" text-anchor="middle">advertisements[0]</text></g></g></g><g transform="translate(0,21)"><g transform="translate(0,0)"><rect class="string-text" x="0" y="0" width="88" height="25"/><text x="4" y="21">_id</text></g><g transform="translate(88,0)"><rect class="string-text" x="0" y="0" width="8" height="25"/><text x="4" y="4"/></g><g transform="translate(0,25)"><rect class="string-text" x="0" y="0" width="88" height="25"/><text x="4" y="21">_timestamp</text></g><g transform="translate(88,25)"><rect class="string-text" x="0" y="0" width="8" height="25"/><text x="4" y="4"/></g><g transform="translate(0,50)"><rect class="string-text" x="0" y="0" width="88" height="25"/><text x="4" y="21">public_name</text></g><g transform="translate(88,50)"><rect class="string-text" x="0" y="0" width="8" height="25"/><text x="4" y="4"/></g></g><g><text x="48" y="17" text-anchor="middle">advertiser</text></g></g><g transform="translate(0,0)"><rect class="string-text" x="0" y="0" width="8" height="8"/><text x="4" y="4"> </text></g><g transform="translate(8,0)"><rect class="string-text" x="0" y="0" width="8" height="8"/><text x="4" y="4"> </text></g></g></g></g></svg>